%
M48
M72
T01C0.01200
T02C0.01378
T03C0.01575
T04C0.01772
T05C0.02362
T06C0.02559
T07C0.02756
T08C0.03937
T09C0.04000
T10C0.05900
T11C0.07087
T12C0.12598
%
T01
X69012Y188769
X165587Y288217
T02
X172949Y297862
X192162Y299122
X174170Y247508
X178264Y244398
X181571Y241209
X186374Y238177
X169288Y228610
X159288Y210894
X171571Y208531
X152555Y233886
X144366Y223531
X137713Y233728
X137319Y238453
X137713Y245539
X135705Y260461
X138894Y262902
X129603Y268335
X128225Y275894
X119996Y245539
X107044Y247508
X115272Y228610
X108185Y221917
X115547Y218492
X119918Y218689
X120351Y206996
X132555Y218768
X129492Y226248
X136689Y201563
X108146Y186878
X101099Y192469
X100311Y186878
X88776Y186662
X88776Y180343
X105272Y166484
X79524Y211787
X88815Y223595
X91256Y217980
X61062Y234713
X58540Y249280
X59445Y256130
X67004Y269240
X73815Y287941
X79642Y299831
X84918Y284043
X45351Y242744
X40783Y256130
X39288Y166799
X39288Y88059
X76689Y29004
X153579Y137272
X216453Y166799
X216453Y88059
X179051Y29004
T03
X58933Y230854
T04
X114091Y285106
X114091Y298689
X142240Y298689
X142240Y285106
T05
X151492Y297508
X152280Y269555
X152280Y264043
X152280Y257744
X158973Y263650
X145981Y264043
X161729Y234122
X176689Y256957
T06
X136040Y290303
X120292Y290303
X121965Y196720
X127870Y196720
X133776Y196720
X139681Y196720
X145587Y196720
X151492Y196720
X116059Y196720
X110154Y196720
X104248Y196720
T07
X96374Y204988
X159366Y204988
T08
X137713Y143177
X127870Y143177
X118028Y143177
X118028Y86091
X137713Y86091
T09
X134755Y65463
X134755Y47663
X120985Y47663
X120985Y65463
X95385Y65463
X81615Y65463
X81615Y47663
X95385Y47663
X81615Y87033
X81615Y104833
X81615Y126403
X81615Y144203
X81615Y165773
X95385Y165773
X95385Y183573
X81615Y183573
X56015Y183573
X56015Y165773
X56015Y144203
X56015Y126403
X56015Y104833
X56015Y87033
X56015Y65463
X56015Y47663
X120985Y165773
X120985Y183573
X134755Y183573
X134755Y165773
X160355Y165773
X174125Y165773
X174125Y183573
X160355Y183573
X174125Y144203
X174125Y126403
X174125Y104833
X174125Y87033
X174125Y65463
X160355Y65463
X160355Y47663
X174125Y47663
X199725Y47663
X199725Y65463
X199725Y87033
X199725Y104833
X199725Y126403
X199725Y144203
X199725Y165773
X199725Y183573
X214463Y236639
X214463Y254439
T10
X204663Y259339
X204663Y231739
T11
X151886Y113650
X103855Y113650
T12
X49130Y29004
X206610Y29004
X206610Y284909
X49130Y284909
M30
