G75*
%MOIN*%
%OFA0B0*%
%FSLAX25Y25*%
%IPPOS*%
%LPD*%
%AMOC8*
5,1,8,0,0,1.08239X$1,22.5*
%
%ADD10C,0.00000*%
%ADD11R,0.03150X0.05512*%
%ADD12R,0.05512X0.03150*%
%ADD13C,0.03800*%
%ADD14C,0.04000*%
%ADD15C,0.02559*%
%ADD16R,0.04724X0.04724*%
%ADD17R,0.05512X0.04331*%
%ADD18R,0.04331X0.05512*%
%ADD19C,0.06000*%
%ADD20R,0.02000X0.02000*%
%ADD21C,0.04000*%
%ADD22OC8,0.06000*%
%ADD23C,0.08850*%
%ADD24C,0.12598*%
%ADD25C,0.05906*%
%ADD26C,0.10630*%
%ADD27R,0.01969X0.05118*%
%ADD28R,0.05118X0.01969*%
%ADD29R,0.03839X0.03839*%
%ADD30C,0.03839*%
%ADD31C,0.04134*%
%ADD32R,0.03937X0.05512*%
%ADD33R,0.05512X0.03937*%
D10*
X0029445Y0012103D02*
X0029445Y0301811D01*
X0029447Y0301915D01*
X0029453Y0302019D01*
X0029463Y0302123D01*
X0029476Y0302226D01*
X0029494Y0302329D01*
X0029515Y0302430D01*
X0029540Y0302532D01*
X0029569Y0302632D01*
X0029601Y0302730D01*
X0029637Y0302828D01*
X0029677Y0302924D01*
X0029721Y0303019D01*
X0029768Y0303112D01*
X0029818Y0303203D01*
X0029872Y0303292D01*
X0029929Y0303379D01*
X0029989Y0303464D01*
X0030052Y0303547D01*
X0030119Y0303627D01*
X0030188Y0303705D01*
X0030260Y0303780D01*
X0030335Y0303852D01*
X0030413Y0303921D01*
X0030493Y0303988D01*
X0030576Y0304051D01*
X0030661Y0304111D01*
X0030748Y0304168D01*
X0030837Y0304222D01*
X0030928Y0304272D01*
X0031021Y0304319D01*
X0031116Y0304363D01*
X0031212Y0304403D01*
X0031310Y0304439D01*
X0031408Y0304471D01*
X0031508Y0304500D01*
X0031610Y0304525D01*
X0031711Y0304546D01*
X0031814Y0304564D01*
X0031917Y0304577D01*
X0032021Y0304587D01*
X0032125Y0304593D01*
X0032229Y0304595D01*
X0032229Y0304594D02*
X0223512Y0304594D01*
X0223512Y0304595D02*
X0223616Y0304593D01*
X0223720Y0304587D01*
X0223824Y0304577D01*
X0223927Y0304564D01*
X0224030Y0304546D01*
X0224131Y0304525D01*
X0224233Y0304500D01*
X0224333Y0304471D01*
X0224431Y0304439D01*
X0224529Y0304403D01*
X0224625Y0304363D01*
X0224720Y0304319D01*
X0224813Y0304272D01*
X0224904Y0304222D01*
X0224993Y0304168D01*
X0225080Y0304111D01*
X0225165Y0304051D01*
X0225248Y0303988D01*
X0225328Y0303921D01*
X0225406Y0303852D01*
X0225481Y0303780D01*
X0225553Y0303705D01*
X0225622Y0303627D01*
X0225689Y0303547D01*
X0225752Y0303464D01*
X0225812Y0303379D01*
X0225869Y0303292D01*
X0225923Y0303203D01*
X0225973Y0303112D01*
X0226020Y0303019D01*
X0226064Y0302924D01*
X0226104Y0302828D01*
X0226140Y0302730D01*
X0226172Y0302632D01*
X0226201Y0302532D01*
X0226226Y0302430D01*
X0226247Y0302329D01*
X0226265Y0302226D01*
X0226278Y0302123D01*
X0226288Y0302019D01*
X0226294Y0301915D01*
X0226296Y0301811D01*
X0226296Y0012103D01*
X0226294Y0011999D01*
X0226288Y0011895D01*
X0226278Y0011791D01*
X0226265Y0011688D01*
X0226247Y0011585D01*
X0226226Y0011484D01*
X0226201Y0011382D01*
X0226172Y0011282D01*
X0226140Y0011184D01*
X0226104Y0011086D01*
X0226064Y0010990D01*
X0226020Y0010895D01*
X0225973Y0010802D01*
X0225923Y0010711D01*
X0225869Y0010622D01*
X0225812Y0010535D01*
X0225752Y0010450D01*
X0225689Y0010367D01*
X0225622Y0010287D01*
X0225553Y0010209D01*
X0225481Y0010134D01*
X0225406Y0010062D01*
X0225328Y0009993D01*
X0225248Y0009926D01*
X0225165Y0009863D01*
X0225080Y0009803D01*
X0224993Y0009746D01*
X0224904Y0009692D01*
X0224813Y0009642D01*
X0224720Y0009595D01*
X0224625Y0009551D01*
X0224529Y0009511D01*
X0224431Y0009475D01*
X0224333Y0009443D01*
X0224233Y0009414D01*
X0224131Y0009389D01*
X0224030Y0009368D01*
X0223927Y0009350D01*
X0223824Y0009337D01*
X0223720Y0009327D01*
X0223616Y0009321D01*
X0223512Y0009319D01*
X0032229Y0009319D01*
X0032125Y0009321D01*
X0032021Y0009327D01*
X0031917Y0009337D01*
X0031814Y0009350D01*
X0031711Y0009368D01*
X0031610Y0009389D01*
X0031508Y0009414D01*
X0031408Y0009443D01*
X0031310Y0009475D01*
X0031212Y0009511D01*
X0031116Y0009551D01*
X0031021Y0009595D01*
X0030928Y0009642D01*
X0030837Y0009692D01*
X0030748Y0009746D01*
X0030661Y0009803D01*
X0030576Y0009863D01*
X0030493Y0009926D01*
X0030413Y0009993D01*
X0030335Y0010062D01*
X0030260Y0010134D01*
X0030188Y0010209D01*
X0030119Y0010287D01*
X0030052Y0010367D01*
X0029989Y0010450D01*
X0029929Y0010535D01*
X0029872Y0010622D01*
X0029818Y0010711D01*
X0029768Y0010802D01*
X0029721Y0010895D01*
X0029677Y0010990D01*
X0029637Y0011086D01*
X0029601Y0011184D01*
X0029569Y0011282D01*
X0029540Y0011382D01*
X0029515Y0011484D01*
X0029494Y0011585D01*
X0029476Y0011688D01*
X0029463Y0011791D01*
X0029453Y0011895D01*
X0029447Y0011999D01*
X0029445Y0012103D01*
X0042831Y0029004D02*
X0042833Y0029162D01*
X0042839Y0029320D01*
X0042849Y0029478D01*
X0042863Y0029636D01*
X0042881Y0029793D01*
X0042902Y0029950D01*
X0042928Y0030106D01*
X0042958Y0030262D01*
X0042991Y0030417D01*
X0043029Y0030570D01*
X0043070Y0030723D01*
X0043115Y0030875D01*
X0043164Y0031026D01*
X0043217Y0031175D01*
X0043273Y0031323D01*
X0043333Y0031469D01*
X0043397Y0031614D01*
X0043465Y0031757D01*
X0043536Y0031899D01*
X0043610Y0032039D01*
X0043688Y0032176D01*
X0043770Y0032312D01*
X0043854Y0032446D01*
X0043943Y0032577D01*
X0044034Y0032706D01*
X0044129Y0032833D01*
X0044226Y0032958D01*
X0044327Y0033080D01*
X0044431Y0033199D01*
X0044538Y0033316D01*
X0044648Y0033430D01*
X0044761Y0033541D01*
X0044876Y0033650D01*
X0044994Y0033755D01*
X0045115Y0033857D01*
X0045238Y0033957D01*
X0045364Y0034053D01*
X0045492Y0034146D01*
X0045622Y0034236D01*
X0045755Y0034322D01*
X0045890Y0034406D01*
X0046026Y0034485D01*
X0046165Y0034562D01*
X0046306Y0034634D01*
X0046448Y0034704D01*
X0046592Y0034769D01*
X0046738Y0034831D01*
X0046885Y0034889D01*
X0047034Y0034944D01*
X0047184Y0034995D01*
X0047335Y0035042D01*
X0047487Y0035085D01*
X0047640Y0035124D01*
X0047795Y0035160D01*
X0047950Y0035191D01*
X0048106Y0035219D01*
X0048262Y0035243D01*
X0048419Y0035263D01*
X0048577Y0035279D01*
X0048734Y0035291D01*
X0048893Y0035299D01*
X0049051Y0035303D01*
X0049209Y0035303D01*
X0049367Y0035299D01*
X0049526Y0035291D01*
X0049683Y0035279D01*
X0049841Y0035263D01*
X0049998Y0035243D01*
X0050154Y0035219D01*
X0050310Y0035191D01*
X0050465Y0035160D01*
X0050620Y0035124D01*
X0050773Y0035085D01*
X0050925Y0035042D01*
X0051076Y0034995D01*
X0051226Y0034944D01*
X0051375Y0034889D01*
X0051522Y0034831D01*
X0051668Y0034769D01*
X0051812Y0034704D01*
X0051954Y0034634D01*
X0052095Y0034562D01*
X0052234Y0034485D01*
X0052370Y0034406D01*
X0052505Y0034322D01*
X0052638Y0034236D01*
X0052768Y0034146D01*
X0052896Y0034053D01*
X0053022Y0033957D01*
X0053145Y0033857D01*
X0053266Y0033755D01*
X0053384Y0033650D01*
X0053499Y0033541D01*
X0053612Y0033430D01*
X0053722Y0033316D01*
X0053829Y0033199D01*
X0053933Y0033080D01*
X0054034Y0032958D01*
X0054131Y0032833D01*
X0054226Y0032706D01*
X0054317Y0032577D01*
X0054406Y0032446D01*
X0054490Y0032312D01*
X0054572Y0032176D01*
X0054650Y0032039D01*
X0054724Y0031899D01*
X0054795Y0031757D01*
X0054863Y0031614D01*
X0054927Y0031469D01*
X0054987Y0031323D01*
X0055043Y0031175D01*
X0055096Y0031026D01*
X0055145Y0030875D01*
X0055190Y0030723D01*
X0055231Y0030570D01*
X0055269Y0030417D01*
X0055302Y0030262D01*
X0055332Y0030106D01*
X0055358Y0029950D01*
X0055379Y0029793D01*
X0055397Y0029636D01*
X0055411Y0029478D01*
X0055421Y0029320D01*
X0055427Y0029162D01*
X0055429Y0029004D01*
X0055427Y0028846D01*
X0055421Y0028688D01*
X0055411Y0028530D01*
X0055397Y0028372D01*
X0055379Y0028215D01*
X0055358Y0028058D01*
X0055332Y0027902D01*
X0055302Y0027746D01*
X0055269Y0027591D01*
X0055231Y0027438D01*
X0055190Y0027285D01*
X0055145Y0027133D01*
X0055096Y0026982D01*
X0055043Y0026833D01*
X0054987Y0026685D01*
X0054927Y0026539D01*
X0054863Y0026394D01*
X0054795Y0026251D01*
X0054724Y0026109D01*
X0054650Y0025969D01*
X0054572Y0025832D01*
X0054490Y0025696D01*
X0054406Y0025562D01*
X0054317Y0025431D01*
X0054226Y0025302D01*
X0054131Y0025175D01*
X0054034Y0025050D01*
X0053933Y0024928D01*
X0053829Y0024809D01*
X0053722Y0024692D01*
X0053612Y0024578D01*
X0053499Y0024467D01*
X0053384Y0024358D01*
X0053266Y0024253D01*
X0053145Y0024151D01*
X0053022Y0024051D01*
X0052896Y0023955D01*
X0052768Y0023862D01*
X0052638Y0023772D01*
X0052505Y0023686D01*
X0052370Y0023602D01*
X0052234Y0023523D01*
X0052095Y0023446D01*
X0051954Y0023374D01*
X0051812Y0023304D01*
X0051668Y0023239D01*
X0051522Y0023177D01*
X0051375Y0023119D01*
X0051226Y0023064D01*
X0051076Y0023013D01*
X0050925Y0022966D01*
X0050773Y0022923D01*
X0050620Y0022884D01*
X0050465Y0022848D01*
X0050310Y0022817D01*
X0050154Y0022789D01*
X0049998Y0022765D01*
X0049841Y0022745D01*
X0049683Y0022729D01*
X0049526Y0022717D01*
X0049367Y0022709D01*
X0049209Y0022705D01*
X0049051Y0022705D01*
X0048893Y0022709D01*
X0048734Y0022717D01*
X0048577Y0022729D01*
X0048419Y0022745D01*
X0048262Y0022765D01*
X0048106Y0022789D01*
X0047950Y0022817D01*
X0047795Y0022848D01*
X0047640Y0022884D01*
X0047487Y0022923D01*
X0047335Y0022966D01*
X0047184Y0023013D01*
X0047034Y0023064D01*
X0046885Y0023119D01*
X0046738Y0023177D01*
X0046592Y0023239D01*
X0046448Y0023304D01*
X0046306Y0023374D01*
X0046165Y0023446D01*
X0046026Y0023523D01*
X0045890Y0023602D01*
X0045755Y0023686D01*
X0045622Y0023772D01*
X0045492Y0023862D01*
X0045364Y0023955D01*
X0045238Y0024051D01*
X0045115Y0024151D01*
X0044994Y0024253D01*
X0044876Y0024358D01*
X0044761Y0024467D01*
X0044648Y0024578D01*
X0044538Y0024692D01*
X0044431Y0024809D01*
X0044327Y0024928D01*
X0044226Y0025050D01*
X0044129Y0025175D01*
X0044034Y0025302D01*
X0043943Y0025431D01*
X0043854Y0025562D01*
X0043770Y0025696D01*
X0043688Y0025832D01*
X0043610Y0025969D01*
X0043536Y0026109D01*
X0043465Y0026251D01*
X0043397Y0026394D01*
X0043333Y0026539D01*
X0043273Y0026685D01*
X0043217Y0026833D01*
X0043164Y0026982D01*
X0043115Y0027133D01*
X0043070Y0027285D01*
X0043029Y0027438D01*
X0042991Y0027591D01*
X0042958Y0027746D01*
X0042928Y0027902D01*
X0042902Y0028058D01*
X0042881Y0028215D01*
X0042863Y0028372D01*
X0042849Y0028530D01*
X0042839Y0028688D01*
X0042833Y0028846D01*
X0042831Y0029004D01*
X0100311Y0109319D02*
X0107398Y0109319D01*
X0107398Y0117980D01*
X0100311Y0117980D01*
X0100311Y0109319D01*
X0148343Y0109319D02*
X0155429Y0109319D01*
X0155429Y0117980D01*
X0148343Y0117980D01*
X0148343Y0109319D01*
X0200311Y0029004D02*
X0200313Y0029162D01*
X0200319Y0029320D01*
X0200329Y0029478D01*
X0200343Y0029636D01*
X0200361Y0029793D01*
X0200382Y0029950D01*
X0200408Y0030106D01*
X0200438Y0030262D01*
X0200471Y0030417D01*
X0200509Y0030570D01*
X0200550Y0030723D01*
X0200595Y0030875D01*
X0200644Y0031026D01*
X0200697Y0031175D01*
X0200753Y0031323D01*
X0200813Y0031469D01*
X0200877Y0031614D01*
X0200945Y0031757D01*
X0201016Y0031899D01*
X0201090Y0032039D01*
X0201168Y0032176D01*
X0201250Y0032312D01*
X0201334Y0032446D01*
X0201423Y0032577D01*
X0201514Y0032706D01*
X0201609Y0032833D01*
X0201706Y0032958D01*
X0201807Y0033080D01*
X0201911Y0033199D01*
X0202018Y0033316D01*
X0202128Y0033430D01*
X0202241Y0033541D01*
X0202356Y0033650D01*
X0202474Y0033755D01*
X0202595Y0033857D01*
X0202718Y0033957D01*
X0202844Y0034053D01*
X0202972Y0034146D01*
X0203102Y0034236D01*
X0203235Y0034322D01*
X0203370Y0034406D01*
X0203506Y0034485D01*
X0203645Y0034562D01*
X0203786Y0034634D01*
X0203928Y0034704D01*
X0204072Y0034769D01*
X0204218Y0034831D01*
X0204365Y0034889D01*
X0204514Y0034944D01*
X0204664Y0034995D01*
X0204815Y0035042D01*
X0204967Y0035085D01*
X0205120Y0035124D01*
X0205275Y0035160D01*
X0205430Y0035191D01*
X0205586Y0035219D01*
X0205742Y0035243D01*
X0205899Y0035263D01*
X0206057Y0035279D01*
X0206214Y0035291D01*
X0206373Y0035299D01*
X0206531Y0035303D01*
X0206689Y0035303D01*
X0206847Y0035299D01*
X0207006Y0035291D01*
X0207163Y0035279D01*
X0207321Y0035263D01*
X0207478Y0035243D01*
X0207634Y0035219D01*
X0207790Y0035191D01*
X0207945Y0035160D01*
X0208100Y0035124D01*
X0208253Y0035085D01*
X0208405Y0035042D01*
X0208556Y0034995D01*
X0208706Y0034944D01*
X0208855Y0034889D01*
X0209002Y0034831D01*
X0209148Y0034769D01*
X0209292Y0034704D01*
X0209434Y0034634D01*
X0209575Y0034562D01*
X0209714Y0034485D01*
X0209850Y0034406D01*
X0209985Y0034322D01*
X0210118Y0034236D01*
X0210248Y0034146D01*
X0210376Y0034053D01*
X0210502Y0033957D01*
X0210625Y0033857D01*
X0210746Y0033755D01*
X0210864Y0033650D01*
X0210979Y0033541D01*
X0211092Y0033430D01*
X0211202Y0033316D01*
X0211309Y0033199D01*
X0211413Y0033080D01*
X0211514Y0032958D01*
X0211611Y0032833D01*
X0211706Y0032706D01*
X0211797Y0032577D01*
X0211886Y0032446D01*
X0211970Y0032312D01*
X0212052Y0032176D01*
X0212130Y0032039D01*
X0212204Y0031899D01*
X0212275Y0031757D01*
X0212343Y0031614D01*
X0212407Y0031469D01*
X0212467Y0031323D01*
X0212523Y0031175D01*
X0212576Y0031026D01*
X0212625Y0030875D01*
X0212670Y0030723D01*
X0212711Y0030570D01*
X0212749Y0030417D01*
X0212782Y0030262D01*
X0212812Y0030106D01*
X0212838Y0029950D01*
X0212859Y0029793D01*
X0212877Y0029636D01*
X0212891Y0029478D01*
X0212901Y0029320D01*
X0212907Y0029162D01*
X0212909Y0029004D01*
X0212907Y0028846D01*
X0212901Y0028688D01*
X0212891Y0028530D01*
X0212877Y0028372D01*
X0212859Y0028215D01*
X0212838Y0028058D01*
X0212812Y0027902D01*
X0212782Y0027746D01*
X0212749Y0027591D01*
X0212711Y0027438D01*
X0212670Y0027285D01*
X0212625Y0027133D01*
X0212576Y0026982D01*
X0212523Y0026833D01*
X0212467Y0026685D01*
X0212407Y0026539D01*
X0212343Y0026394D01*
X0212275Y0026251D01*
X0212204Y0026109D01*
X0212130Y0025969D01*
X0212052Y0025832D01*
X0211970Y0025696D01*
X0211886Y0025562D01*
X0211797Y0025431D01*
X0211706Y0025302D01*
X0211611Y0025175D01*
X0211514Y0025050D01*
X0211413Y0024928D01*
X0211309Y0024809D01*
X0211202Y0024692D01*
X0211092Y0024578D01*
X0210979Y0024467D01*
X0210864Y0024358D01*
X0210746Y0024253D01*
X0210625Y0024151D01*
X0210502Y0024051D01*
X0210376Y0023955D01*
X0210248Y0023862D01*
X0210118Y0023772D01*
X0209985Y0023686D01*
X0209850Y0023602D01*
X0209714Y0023523D01*
X0209575Y0023446D01*
X0209434Y0023374D01*
X0209292Y0023304D01*
X0209148Y0023239D01*
X0209002Y0023177D01*
X0208855Y0023119D01*
X0208706Y0023064D01*
X0208556Y0023013D01*
X0208405Y0022966D01*
X0208253Y0022923D01*
X0208100Y0022884D01*
X0207945Y0022848D01*
X0207790Y0022817D01*
X0207634Y0022789D01*
X0207478Y0022765D01*
X0207321Y0022745D01*
X0207163Y0022729D01*
X0207006Y0022717D01*
X0206847Y0022709D01*
X0206689Y0022705D01*
X0206531Y0022705D01*
X0206373Y0022709D01*
X0206214Y0022717D01*
X0206057Y0022729D01*
X0205899Y0022745D01*
X0205742Y0022765D01*
X0205586Y0022789D01*
X0205430Y0022817D01*
X0205275Y0022848D01*
X0205120Y0022884D01*
X0204967Y0022923D01*
X0204815Y0022966D01*
X0204664Y0023013D01*
X0204514Y0023064D01*
X0204365Y0023119D01*
X0204218Y0023177D01*
X0204072Y0023239D01*
X0203928Y0023304D01*
X0203786Y0023374D01*
X0203645Y0023446D01*
X0203506Y0023523D01*
X0203370Y0023602D01*
X0203235Y0023686D01*
X0203102Y0023772D01*
X0202972Y0023862D01*
X0202844Y0023955D01*
X0202718Y0024051D01*
X0202595Y0024151D01*
X0202474Y0024253D01*
X0202356Y0024358D01*
X0202241Y0024467D01*
X0202128Y0024578D01*
X0202018Y0024692D01*
X0201911Y0024809D01*
X0201807Y0024928D01*
X0201706Y0025050D01*
X0201609Y0025175D01*
X0201514Y0025302D01*
X0201423Y0025431D01*
X0201334Y0025562D01*
X0201250Y0025696D01*
X0201168Y0025832D01*
X0201090Y0025969D01*
X0201016Y0026109D01*
X0200945Y0026251D01*
X0200877Y0026394D01*
X0200813Y0026539D01*
X0200753Y0026685D01*
X0200697Y0026833D01*
X0200644Y0026982D01*
X0200595Y0027133D01*
X0200550Y0027285D01*
X0200509Y0027438D01*
X0200471Y0027591D01*
X0200438Y0027746D01*
X0200408Y0027902D01*
X0200382Y0028058D01*
X0200361Y0028215D01*
X0200343Y0028372D01*
X0200329Y0028530D01*
X0200319Y0028688D01*
X0200313Y0028846D01*
X0200311Y0029004D01*
X0162910Y0203413D02*
X0155823Y0203413D01*
X0155823Y0206563D01*
X0162910Y0206563D01*
X0162910Y0203413D01*
X0143126Y0282646D02*
X0143126Y0287567D01*
X0143124Y0287625D01*
X0143118Y0287683D01*
X0143109Y0287740D01*
X0143096Y0287796D01*
X0143079Y0287852D01*
X0143059Y0287906D01*
X0143035Y0287959D01*
X0143007Y0288010D01*
X0142977Y0288059D01*
X0142943Y0288106D01*
X0142906Y0288151D01*
X0142866Y0288193D01*
X0142824Y0288233D01*
X0142779Y0288270D01*
X0142732Y0288304D01*
X0142683Y0288334D01*
X0142632Y0288362D01*
X0142579Y0288386D01*
X0142525Y0288406D01*
X0142469Y0288423D01*
X0142413Y0288436D01*
X0142356Y0288445D01*
X0142298Y0288451D01*
X0142240Y0288453D01*
X0142182Y0288451D01*
X0142124Y0288445D01*
X0142067Y0288436D01*
X0142011Y0288423D01*
X0141955Y0288406D01*
X0141901Y0288386D01*
X0141848Y0288362D01*
X0141797Y0288334D01*
X0141748Y0288304D01*
X0141701Y0288270D01*
X0141656Y0288233D01*
X0141614Y0288193D01*
X0141574Y0288151D01*
X0141537Y0288106D01*
X0141503Y0288059D01*
X0141473Y0288010D01*
X0141445Y0287959D01*
X0141421Y0287906D01*
X0141401Y0287852D01*
X0141384Y0287796D01*
X0141371Y0287740D01*
X0141362Y0287683D01*
X0141356Y0287625D01*
X0141354Y0287567D01*
X0141355Y0287567D02*
X0141355Y0282646D01*
X0141354Y0282646D02*
X0141356Y0282588D01*
X0141362Y0282530D01*
X0141371Y0282473D01*
X0141384Y0282417D01*
X0141401Y0282361D01*
X0141421Y0282307D01*
X0141445Y0282254D01*
X0141473Y0282203D01*
X0141503Y0282154D01*
X0141537Y0282107D01*
X0141574Y0282062D01*
X0141614Y0282020D01*
X0141656Y0281980D01*
X0141701Y0281943D01*
X0141748Y0281909D01*
X0141797Y0281879D01*
X0141848Y0281851D01*
X0141901Y0281827D01*
X0141955Y0281807D01*
X0142011Y0281790D01*
X0142067Y0281777D01*
X0142124Y0281768D01*
X0142182Y0281762D01*
X0142240Y0281760D01*
X0142298Y0281762D01*
X0142356Y0281768D01*
X0142413Y0281777D01*
X0142469Y0281790D01*
X0142525Y0281807D01*
X0142579Y0281827D01*
X0142632Y0281851D01*
X0142683Y0281879D01*
X0142732Y0281909D01*
X0142779Y0281943D01*
X0142824Y0281980D01*
X0142866Y0282020D01*
X0142906Y0282062D01*
X0142943Y0282107D01*
X0142977Y0282154D01*
X0143007Y0282203D01*
X0143035Y0282254D01*
X0143059Y0282307D01*
X0143079Y0282361D01*
X0143096Y0282417D01*
X0143109Y0282473D01*
X0143118Y0282530D01*
X0143124Y0282588D01*
X0143126Y0282646D01*
X0134760Y0290303D02*
X0134762Y0290374D01*
X0134768Y0290445D01*
X0134778Y0290516D01*
X0134792Y0290585D01*
X0134809Y0290654D01*
X0134831Y0290722D01*
X0134856Y0290789D01*
X0134885Y0290854D01*
X0134917Y0290917D01*
X0134953Y0290979D01*
X0134992Y0291038D01*
X0135035Y0291095D01*
X0135080Y0291150D01*
X0135129Y0291202D01*
X0135180Y0291251D01*
X0135234Y0291297D01*
X0135291Y0291341D01*
X0135349Y0291381D01*
X0135410Y0291417D01*
X0135473Y0291451D01*
X0135538Y0291480D01*
X0135604Y0291506D01*
X0135672Y0291529D01*
X0135740Y0291547D01*
X0135810Y0291562D01*
X0135880Y0291573D01*
X0135951Y0291580D01*
X0136022Y0291583D01*
X0136093Y0291582D01*
X0136164Y0291577D01*
X0136235Y0291568D01*
X0136305Y0291555D01*
X0136374Y0291539D01*
X0136442Y0291518D01*
X0136509Y0291494D01*
X0136575Y0291466D01*
X0136638Y0291434D01*
X0136700Y0291399D01*
X0136760Y0291361D01*
X0136818Y0291319D01*
X0136873Y0291275D01*
X0136926Y0291227D01*
X0136976Y0291176D01*
X0137023Y0291123D01*
X0137067Y0291067D01*
X0137108Y0291009D01*
X0137146Y0290948D01*
X0137180Y0290886D01*
X0137210Y0290821D01*
X0137237Y0290756D01*
X0137261Y0290688D01*
X0137280Y0290620D01*
X0137296Y0290551D01*
X0137308Y0290480D01*
X0137316Y0290410D01*
X0137320Y0290339D01*
X0137320Y0290267D01*
X0137316Y0290196D01*
X0137308Y0290126D01*
X0137296Y0290055D01*
X0137280Y0289986D01*
X0137261Y0289918D01*
X0137237Y0289850D01*
X0137210Y0289785D01*
X0137180Y0289720D01*
X0137146Y0289658D01*
X0137108Y0289597D01*
X0137067Y0289539D01*
X0137023Y0289483D01*
X0136976Y0289430D01*
X0136926Y0289379D01*
X0136873Y0289331D01*
X0136818Y0289287D01*
X0136760Y0289245D01*
X0136700Y0289207D01*
X0136638Y0289172D01*
X0136575Y0289140D01*
X0136509Y0289112D01*
X0136442Y0289088D01*
X0136374Y0289067D01*
X0136305Y0289051D01*
X0136235Y0289038D01*
X0136164Y0289029D01*
X0136093Y0289024D01*
X0136022Y0289023D01*
X0135951Y0289026D01*
X0135880Y0289033D01*
X0135810Y0289044D01*
X0135740Y0289059D01*
X0135672Y0289077D01*
X0135604Y0289100D01*
X0135538Y0289126D01*
X0135473Y0289155D01*
X0135410Y0289189D01*
X0135349Y0289225D01*
X0135291Y0289265D01*
X0135234Y0289309D01*
X0135180Y0289355D01*
X0135129Y0289404D01*
X0135080Y0289456D01*
X0135035Y0289511D01*
X0134992Y0289568D01*
X0134953Y0289627D01*
X0134917Y0289689D01*
X0134885Y0289752D01*
X0134856Y0289817D01*
X0134831Y0289884D01*
X0134809Y0289952D01*
X0134792Y0290021D01*
X0134778Y0290090D01*
X0134768Y0290161D01*
X0134762Y0290232D01*
X0134760Y0290303D01*
X0141355Y0296228D02*
X0141355Y0301150D01*
X0141354Y0301150D02*
X0141356Y0301208D01*
X0141362Y0301266D01*
X0141371Y0301323D01*
X0141384Y0301379D01*
X0141401Y0301435D01*
X0141421Y0301489D01*
X0141445Y0301542D01*
X0141473Y0301593D01*
X0141503Y0301642D01*
X0141537Y0301689D01*
X0141574Y0301734D01*
X0141614Y0301776D01*
X0141656Y0301816D01*
X0141701Y0301853D01*
X0141748Y0301887D01*
X0141797Y0301917D01*
X0141848Y0301945D01*
X0141901Y0301969D01*
X0141955Y0301989D01*
X0142011Y0302006D01*
X0142067Y0302019D01*
X0142124Y0302028D01*
X0142182Y0302034D01*
X0142240Y0302036D01*
X0142298Y0302034D01*
X0142356Y0302028D01*
X0142413Y0302019D01*
X0142469Y0302006D01*
X0142525Y0301989D01*
X0142579Y0301969D01*
X0142632Y0301945D01*
X0142683Y0301917D01*
X0142732Y0301887D01*
X0142779Y0301853D01*
X0142824Y0301816D01*
X0142866Y0301776D01*
X0142906Y0301734D01*
X0142943Y0301689D01*
X0142977Y0301642D01*
X0143007Y0301593D01*
X0143035Y0301542D01*
X0143059Y0301489D01*
X0143079Y0301435D01*
X0143096Y0301379D01*
X0143109Y0301323D01*
X0143118Y0301266D01*
X0143124Y0301208D01*
X0143126Y0301150D01*
X0143126Y0296228D01*
X0143124Y0296170D01*
X0143118Y0296112D01*
X0143109Y0296055D01*
X0143096Y0295999D01*
X0143079Y0295943D01*
X0143059Y0295889D01*
X0143035Y0295836D01*
X0143007Y0295785D01*
X0142977Y0295736D01*
X0142943Y0295689D01*
X0142906Y0295644D01*
X0142866Y0295602D01*
X0142824Y0295562D01*
X0142779Y0295525D01*
X0142732Y0295491D01*
X0142683Y0295461D01*
X0142632Y0295433D01*
X0142579Y0295409D01*
X0142525Y0295389D01*
X0142469Y0295372D01*
X0142413Y0295359D01*
X0142356Y0295350D01*
X0142298Y0295344D01*
X0142240Y0295342D01*
X0142182Y0295344D01*
X0142124Y0295350D01*
X0142067Y0295359D01*
X0142011Y0295372D01*
X0141955Y0295389D01*
X0141901Y0295409D01*
X0141848Y0295433D01*
X0141797Y0295461D01*
X0141748Y0295491D01*
X0141701Y0295525D01*
X0141656Y0295562D01*
X0141614Y0295602D01*
X0141574Y0295644D01*
X0141537Y0295689D01*
X0141503Y0295736D01*
X0141473Y0295785D01*
X0141445Y0295836D01*
X0141421Y0295889D01*
X0141401Y0295943D01*
X0141384Y0295999D01*
X0141371Y0296055D01*
X0141362Y0296112D01*
X0141356Y0296170D01*
X0141354Y0296228D01*
X0119012Y0290303D02*
X0119014Y0290374D01*
X0119020Y0290445D01*
X0119030Y0290516D01*
X0119044Y0290585D01*
X0119061Y0290654D01*
X0119083Y0290722D01*
X0119108Y0290789D01*
X0119137Y0290854D01*
X0119169Y0290917D01*
X0119205Y0290979D01*
X0119244Y0291038D01*
X0119287Y0291095D01*
X0119332Y0291150D01*
X0119381Y0291202D01*
X0119432Y0291251D01*
X0119486Y0291297D01*
X0119543Y0291341D01*
X0119601Y0291381D01*
X0119662Y0291417D01*
X0119725Y0291451D01*
X0119790Y0291480D01*
X0119856Y0291506D01*
X0119924Y0291529D01*
X0119992Y0291547D01*
X0120062Y0291562D01*
X0120132Y0291573D01*
X0120203Y0291580D01*
X0120274Y0291583D01*
X0120345Y0291582D01*
X0120416Y0291577D01*
X0120487Y0291568D01*
X0120557Y0291555D01*
X0120626Y0291539D01*
X0120694Y0291518D01*
X0120761Y0291494D01*
X0120827Y0291466D01*
X0120890Y0291434D01*
X0120952Y0291399D01*
X0121012Y0291361D01*
X0121070Y0291319D01*
X0121125Y0291275D01*
X0121178Y0291227D01*
X0121228Y0291176D01*
X0121275Y0291123D01*
X0121319Y0291067D01*
X0121360Y0291009D01*
X0121398Y0290948D01*
X0121432Y0290886D01*
X0121462Y0290821D01*
X0121489Y0290756D01*
X0121513Y0290688D01*
X0121532Y0290620D01*
X0121548Y0290551D01*
X0121560Y0290480D01*
X0121568Y0290410D01*
X0121572Y0290339D01*
X0121572Y0290267D01*
X0121568Y0290196D01*
X0121560Y0290126D01*
X0121548Y0290055D01*
X0121532Y0289986D01*
X0121513Y0289918D01*
X0121489Y0289850D01*
X0121462Y0289785D01*
X0121432Y0289720D01*
X0121398Y0289658D01*
X0121360Y0289597D01*
X0121319Y0289539D01*
X0121275Y0289483D01*
X0121228Y0289430D01*
X0121178Y0289379D01*
X0121125Y0289331D01*
X0121070Y0289287D01*
X0121012Y0289245D01*
X0120952Y0289207D01*
X0120890Y0289172D01*
X0120827Y0289140D01*
X0120761Y0289112D01*
X0120694Y0289088D01*
X0120626Y0289067D01*
X0120557Y0289051D01*
X0120487Y0289038D01*
X0120416Y0289029D01*
X0120345Y0289024D01*
X0120274Y0289023D01*
X0120203Y0289026D01*
X0120132Y0289033D01*
X0120062Y0289044D01*
X0119992Y0289059D01*
X0119924Y0289077D01*
X0119856Y0289100D01*
X0119790Y0289126D01*
X0119725Y0289155D01*
X0119662Y0289189D01*
X0119601Y0289225D01*
X0119543Y0289265D01*
X0119486Y0289309D01*
X0119432Y0289355D01*
X0119381Y0289404D01*
X0119332Y0289456D01*
X0119287Y0289511D01*
X0119244Y0289568D01*
X0119205Y0289627D01*
X0119169Y0289689D01*
X0119137Y0289752D01*
X0119108Y0289817D01*
X0119083Y0289884D01*
X0119061Y0289952D01*
X0119044Y0290021D01*
X0119030Y0290090D01*
X0119020Y0290161D01*
X0119014Y0290232D01*
X0119012Y0290303D01*
X0114977Y0287567D02*
X0114977Y0282646D01*
X0114975Y0282588D01*
X0114969Y0282530D01*
X0114960Y0282473D01*
X0114947Y0282417D01*
X0114930Y0282361D01*
X0114910Y0282307D01*
X0114886Y0282254D01*
X0114858Y0282203D01*
X0114828Y0282154D01*
X0114794Y0282107D01*
X0114757Y0282062D01*
X0114717Y0282020D01*
X0114675Y0281980D01*
X0114630Y0281943D01*
X0114583Y0281909D01*
X0114534Y0281879D01*
X0114483Y0281851D01*
X0114430Y0281827D01*
X0114376Y0281807D01*
X0114320Y0281790D01*
X0114264Y0281777D01*
X0114207Y0281768D01*
X0114149Y0281762D01*
X0114091Y0281760D01*
X0114033Y0281762D01*
X0113975Y0281768D01*
X0113918Y0281777D01*
X0113862Y0281790D01*
X0113806Y0281807D01*
X0113752Y0281827D01*
X0113699Y0281851D01*
X0113648Y0281879D01*
X0113599Y0281909D01*
X0113552Y0281943D01*
X0113507Y0281980D01*
X0113465Y0282020D01*
X0113425Y0282062D01*
X0113388Y0282107D01*
X0113354Y0282154D01*
X0113324Y0282203D01*
X0113296Y0282254D01*
X0113272Y0282307D01*
X0113252Y0282361D01*
X0113235Y0282417D01*
X0113222Y0282473D01*
X0113213Y0282530D01*
X0113207Y0282588D01*
X0113205Y0282646D01*
X0113205Y0287567D01*
X0113207Y0287625D01*
X0113213Y0287683D01*
X0113222Y0287740D01*
X0113235Y0287796D01*
X0113252Y0287852D01*
X0113272Y0287906D01*
X0113296Y0287959D01*
X0113324Y0288010D01*
X0113354Y0288059D01*
X0113388Y0288106D01*
X0113425Y0288151D01*
X0113465Y0288193D01*
X0113507Y0288233D01*
X0113552Y0288270D01*
X0113599Y0288304D01*
X0113648Y0288334D01*
X0113699Y0288362D01*
X0113752Y0288386D01*
X0113806Y0288406D01*
X0113862Y0288423D01*
X0113918Y0288436D01*
X0113975Y0288445D01*
X0114033Y0288451D01*
X0114091Y0288453D01*
X0114149Y0288451D01*
X0114207Y0288445D01*
X0114264Y0288436D01*
X0114320Y0288423D01*
X0114376Y0288406D01*
X0114430Y0288386D01*
X0114483Y0288362D01*
X0114534Y0288334D01*
X0114583Y0288304D01*
X0114630Y0288270D01*
X0114675Y0288233D01*
X0114717Y0288193D01*
X0114757Y0288151D01*
X0114794Y0288106D01*
X0114828Y0288059D01*
X0114858Y0288010D01*
X0114886Y0287959D01*
X0114910Y0287906D01*
X0114930Y0287852D01*
X0114947Y0287796D01*
X0114960Y0287740D01*
X0114969Y0287683D01*
X0114975Y0287625D01*
X0114977Y0287567D01*
X0114977Y0296228D02*
X0114977Y0301150D01*
X0114975Y0301208D01*
X0114969Y0301266D01*
X0114960Y0301323D01*
X0114947Y0301379D01*
X0114930Y0301435D01*
X0114910Y0301489D01*
X0114886Y0301542D01*
X0114858Y0301593D01*
X0114828Y0301642D01*
X0114794Y0301689D01*
X0114757Y0301734D01*
X0114717Y0301776D01*
X0114675Y0301816D01*
X0114630Y0301853D01*
X0114583Y0301887D01*
X0114534Y0301917D01*
X0114483Y0301945D01*
X0114430Y0301969D01*
X0114376Y0301989D01*
X0114320Y0302006D01*
X0114264Y0302019D01*
X0114207Y0302028D01*
X0114149Y0302034D01*
X0114091Y0302036D01*
X0114033Y0302034D01*
X0113975Y0302028D01*
X0113918Y0302019D01*
X0113862Y0302006D01*
X0113806Y0301989D01*
X0113752Y0301969D01*
X0113699Y0301945D01*
X0113648Y0301917D01*
X0113599Y0301887D01*
X0113552Y0301853D01*
X0113507Y0301816D01*
X0113465Y0301776D01*
X0113425Y0301734D01*
X0113388Y0301689D01*
X0113354Y0301642D01*
X0113324Y0301593D01*
X0113296Y0301542D01*
X0113272Y0301489D01*
X0113252Y0301435D01*
X0113235Y0301379D01*
X0113222Y0301323D01*
X0113213Y0301266D01*
X0113207Y0301208D01*
X0113205Y0301150D01*
X0113205Y0296228D01*
X0113207Y0296170D01*
X0113213Y0296112D01*
X0113222Y0296055D01*
X0113235Y0295999D01*
X0113252Y0295943D01*
X0113272Y0295889D01*
X0113296Y0295836D01*
X0113324Y0295785D01*
X0113354Y0295736D01*
X0113388Y0295689D01*
X0113425Y0295644D01*
X0113465Y0295602D01*
X0113507Y0295562D01*
X0113552Y0295525D01*
X0113599Y0295491D01*
X0113648Y0295461D01*
X0113699Y0295433D01*
X0113752Y0295409D01*
X0113806Y0295389D01*
X0113862Y0295372D01*
X0113918Y0295359D01*
X0113975Y0295350D01*
X0114033Y0295344D01*
X0114091Y0295342D01*
X0114149Y0295344D01*
X0114207Y0295350D01*
X0114264Y0295359D01*
X0114320Y0295372D01*
X0114376Y0295389D01*
X0114430Y0295409D01*
X0114483Y0295433D01*
X0114534Y0295461D01*
X0114583Y0295491D01*
X0114630Y0295525D01*
X0114675Y0295562D01*
X0114717Y0295602D01*
X0114757Y0295644D01*
X0114794Y0295689D01*
X0114828Y0295736D01*
X0114858Y0295785D01*
X0114886Y0295836D01*
X0114910Y0295889D01*
X0114930Y0295943D01*
X0114947Y0295999D01*
X0114960Y0296055D01*
X0114969Y0296112D01*
X0114975Y0296170D01*
X0114977Y0296228D01*
X0099918Y0206563D02*
X0092831Y0206563D01*
X0092831Y0203413D01*
X0099918Y0203413D01*
X0099918Y0206563D01*
X0042831Y0284909D02*
X0042833Y0285067D01*
X0042839Y0285225D01*
X0042849Y0285383D01*
X0042863Y0285541D01*
X0042881Y0285698D01*
X0042902Y0285855D01*
X0042928Y0286011D01*
X0042958Y0286167D01*
X0042991Y0286322D01*
X0043029Y0286475D01*
X0043070Y0286628D01*
X0043115Y0286780D01*
X0043164Y0286931D01*
X0043217Y0287080D01*
X0043273Y0287228D01*
X0043333Y0287374D01*
X0043397Y0287519D01*
X0043465Y0287662D01*
X0043536Y0287804D01*
X0043610Y0287944D01*
X0043688Y0288081D01*
X0043770Y0288217D01*
X0043854Y0288351D01*
X0043943Y0288482D01*
X0044034Y0288611D01*
X0044129Y0288738D01*
X0044226Y0288863D01*
X0044327Y0288985D01*
X0044431Y0289104D01*
X0044538Y0289221D01*
X0044648Y0289335D01*
X0044761Y0289446D01*
X0044876Y0289555D01*
X0044994Y0289660D01*
X0045115Y0289762D01*
X0045238Y0289862D01*
X0045364Y0289958D01*
X0045492Y0290051D01*
X0045622Y0290141D01*
X0045755Y0290227D01*
X0045890Y0290311D01*
X0046026Y0290390D01*
X0046165Y0290467D01*
X0046306Y0290539D01*
X0046448Y0290609D01*
X0046592Y0290674D01*
X0046738Y0290736D01*
X0046885Y0290794D01*
X0047034Y0290849D01*
X0047184Y0290900D01*
X0047335Y0290947D01*
X0047487Y0290990D01*
X0047640Y0291029D01*
X0047795Y0291065D01*
X0047950Y0291096D01*
X0048106Y0291124D01*
X0048262Y0291148D01*
X0048419Y0291168D01*
X0048577Y0291184D01*
X0048734Y0291196D01*
X0048893Y0291204D01*
X0049051Y0291208D01*
X0049209Y0291208D01*
X0049367Y0291204D01*
X0049526Y0291196D01*
X0049683Y0291184D01*
X0049841Y0291168D01*
X0049998Y0291148D01*
X0050154Y0291124D01*
X0050310Y0291096D01*
X0050465Y0291065D01*
X0050620Y0291029D01*
X0050773Y0290990D01*
X0050925Y0290947D01*
X0051076Y0290900D01*
X0051226Y0290849D01*
X0051375Y0290794D01*
X0051522Y0290736D01*
X0051668Y0290674D01*
X0051812Y0290609D01*
X0051954Y0290539D01*
X0052095Y0290467D01*
X0052234Y0290390D01*
X0052370Y0290311D01*
X0052505Y0290227D01*
X0052638Y0290141D01*
X0052768Y0290051D01*
X0052896Y0289958D01*
X0053022Y0289862D01*
X0053145Y0289762D01*
X0053266Y0289660D01*
X0053384Y0289555D01*
X0053499Y0289446D01*
X0053612Y0289335D01*
X0053722Y0289221D01*
X0053829Y0289104D01*
X0053933Y0288985D01*
X0054034Y0288863D01*
X0054131Y0288738D01*
X0054226Y0288611D01*
X0054317Y0288482D01*
X0054406Y0288351D01*
X0054490Y0288217D01*
X0054572Y0288081D01*
X0054650Y0287944D01*
X0054724Y0287804D01*
X0054795Y0287662D01*
X0054863Y0287519D01*
X0054927Y0287374D01*
X0054987Y0287228D01*
X0055043Y0287080D01*
X0055096Y0286931D01*
X0055145Y0286780D01*
X0055190Y0286628D01*
X0055231Y0286475D01*
X0055269Y0286322D01*
X0055302Y0286167D01*
X0055332Y0286011D01*
X0055358Y0285855D01*
X0055379Y0285698D01*
X0055397Y0285541D01*
X0055411Y0285383D01*
X0055421Y0285225D01*
X0055427Y0285067D01*
X0055429Y0284909D01*
X0055427Y0284751D01*
X0055421Y0284593D01*
X0055411Y0284435D01*
X0055397Y0284277D01*
X0055379Y0284120D01*
X0055358Y0283963D01*
X0055332Y0283807D01*
X0055302Y0283651D01*
X0055269Y0283496D01*
X0055231Y0283343D01*
X0055190Y0283190D01*
X0055145Y0283038D01*
X0055096Y0282887D01*
X0055043Y0282738D01*
X0054987Y0282590D01*
X0054927Y0282444D01*
X0054863Y0282299D01*
X0054795Y0282156D01*
X0054724Y0282014D01*
X0054650Y0281874D01*
X0054572Y0281737D01*
X0054490Y0281601D01*
X0054406Y0281467D01*
X0054317Y0281336D01*
X0054226Y0281207D01*
X0054131Y0281080D01*
X0054034Y0280955D01*
X0053933Y0280833D01*
X0053829Y0280714D01*
X0053722Y0280597D01*
X0053612Y0280483D01*
X0053499Y0280372D01*
X0053384Y0280263D01*
X0053266Y0280158D01*
X0053145Y0280056D01*
X0053022Y0279956D01*
X0052896Y0279860D01*
X0052768Y0279767D01*
X0052638Y0279677D01*
X0052505Y0279591D01*
X0052370Y0279507D01*
X0052234Y0279428D01*
X0052095Y0279351D01*
X0051954Y0279279D01*
X0051812Y0279209D01*
X0051668Y0279144D01*
X0051522Y0279082D01*
X0051375Y0279024D01*
X0051226Y0278969D01*
X0051076Y0278918D01*
X0050925Y0278871D01*
X0050773Y0278828D01*
X0050620Y0278789D01*
X0050465Y0278753D01*
X0050310Y0278722D01*
X0050154Y0278694D01*
X0049998Y0278670D01*
X0049841Y0278650D01*
X0049683Y0278634D01*
X0049526Y0278622D01*
X0049367Y0278614D01*
X0049209Y0278610D01*
X0049051Y0278610D01*
X0048893Y0278614D01*
X0048734Y0278622D01*
X0048577Y0278634D01*
X0048419Y0278650D01*
X0048262Y0278670D01*
X0048106Y0278694D01*
X0047950Y0278722D01*
X0047795Y0278753D01*
X0047640Y0278789D01*
X0047487Y0278828D01*
X0047335Y0278871D01*
X0047184Y0278918D01*
X0047034Y0278969D01*
X0046885Y0279024D01*
X0046738Y0279082D01*
X0046592Y0279144D01*
X0046448Y0279209D01*
X0046306Y0279279D01*
X0046165Y0279351D01*
X0046026Y0279428D01*
X0045890Y0279507D01*
X0045755Y0279591D01*
X0045622Y0279677D01*
X0045492Y0279767D01*
X0045364Y0279860D01*
X0045238Y0279956D01*
X0045115Y0280056D01*
X0044994Y0280158D01*
X0044876Y0280263D01*
X0044761Y0280372D01*
X0044648Y0280483D01*
X0044538Y0280597D01*
X0044431Y0280714D01*
X0044327Y0280833D01*
X0044226Y0280955D01*
X0044129Y0281080D01*
X0044034Y0281207D01*
X0043943Y0281336D01*
X0043854Y0281467D01*
X0043770Y0281601D01*
X0043688Y0281737D01*
X0043610Y0281874D01*
X0043536Y0282014D01*
X0043465Y0282156D01*
X0043397Y0282299D01*
X0043333Y0282444D01*
X0043273Y0282590D01*
X0043217Y0282738D01*
X0043164Y0282887D01*
X0043115Y0283038D01*
X0043070Y0283190D01*
X0043029Y0283343D01*
X0042991Y0283496D01*
X0042958Y0283651D01*
X0042928Y0283807D01*
X0042902Y0283963D01*
X0042881Y0284120D01*
X0042863Y0284277D01*
X0042849Y0284435D01*
X0042839Y0284593D01*
X0042833Y0284751D01*
X0042831Y0284909D01*
X0200311Y0284909D02*
X0200313Y0285067D01*
X0200319Y0285225D01*
X0200329Y0285383D01*
X0200343Y0285541D01*
X0200361Y0285698D01*
X0200382Y0285855D01*
X0200408Y0286011D01*
X0200438Y0286167D01*
X0200471Y0286322D01*
X0200509Y0286475D01*
X0200550Y0286628D01*
X0200595Y0286780D01*
X0200644Y0286931D01*
X0200697Y0287080D01*
X0200753Y0287228D01*
X0200813Y0287374D01*
X0200877Y0287519D01*
X0200945Y0287662D01*
X0201016Y0287804D01*
X0201090Y0287944D01*
X0201168Y0288081D01*
X0201250Y0288217D01*
X0201334Y0288351D01*
X0201423Y0288482D01*
X0201514Y0288611D01*
X0201609Y0288738D01*
X0201706Y0288863D01*
X0201807Y0288985D01*
X0201911Y0289104D01*
X0202018Y0289221D01*
X0202128Y0289335D01*
X0202241Y0289446D01*
X0202356Y0289555D01*
X0202474Y0289660D01*
X0202595Y0289762D01*
X0202718Y0289862D01*
X0202844Y0289958D01*
X0202972Y0290051D01*
X0203102Y0290141D01*
X0203235Y0290227D01*
X0203370Y0290311D01*
X0203506Y0290390D01*
X0203645Y0290467D01*
X0203786Y0290539D01*
X0203928Y0290609D01*
X0204072Y0290674D01*
X0204218Y0290736D01*
X0204365Y0290794D01*
X0204514Y0290849D01*
X0204664Y0290900D01*
X0204815Y0290947D01*
X0204967Y0290990D01*
X0205120Y0291029D01*
X0205275Y0291065D01*
X0205430Y0291096D01*
X0205586Y0291124D01*
X0205742Y0291148D01*
X0205899Y0291168D01*
X0206057Y0291184D01*
X0206214Y0291196D01*
X0206373Y0291204D01*
X0206531Y0291208D01*
X0206689Y0291208D01*
X0206847Y0291204D01*
X0207006Y0291196D01*
X0207163Y0291184D01*
X0207321Y0291168D01*
X0207478Y0291148D01*
X0207634Y0291124D01*
X0207790Y0291096D01*
X0207945Y0291065D01*
X0208100Y0291029D01*
X0208253Y0290990D01*
X0208405Y0290947D01*
X0208556Y0290900D01*
X0208706Y0290849D01*
X0208855Y0290794D01*
X0209002Y0290736D01*
X0209148Y0290674D01*
X0209292Y0290609D01*
X0209434Y0290539D01*
X0209575Y0290467D01*
X0209714Y0290390D01*
X0209850Y0290311D01*
X0209985Y0290227D01*
X0210118Y0290141D01*
X0210248Y0290051D01*
X0210376Y0289958D01*
X0210502Y0289862D01*
X0210625Y0289762D01*
X0210746Y0289660D01*
X0210864Y0289555D01*
X0210979Y0289446D01*
X0211092Y0289335D01*
X0211202Y0289221D01*
X0211309Y0289104D01*
X0211413Y0288985D01*
X0211514Y0288863D01*
X0211611Y0288738D01*
X0211706Y0288611D01*
X0211797Y0288482D01*
X0211886Y0288351D01*
X0211970Y0288217D01*
X0212052Y0288081D01*
X0212130Y0287944D01*
X0212204Y0287804D01*
X0212275Y0287662D01*
X0212343Y0287519D01*
X0212407Y0287374D01*
X0212467Y0287228D01*
X0212523Y0287080D01*
X0212576Y0286931D01*
X0212625Y0286780D01*
X0212670Y0286628D01*
X0212711Y0286475D01*
X0212749Y0286322D01*
X0212782Y0286167D01*
X0212812Y0286011D01*
X0212838Y0285855D01*
X0212859Y0285698D01*
X0212877Y0285541D01*
X0212891Y0285383D01*
X0212901Y0285225D01*
X0212907Y0285067D01*
X0212909Y0284909D01*
X0212907Y0284751D01*
X0212901Y0284593D01*
X0212891Y0284435D01*
X0212877Y0284277D01*
X0212859Y0284120D01*
X0212838Y0283963D01*
X0212812Y0283807D01*
X0212782Y0283651D01*
X0212749Y0283496D01*
X0212711Y0283343D01*
X0212670Y0283190D01*
X0212625Y0283038D01*
X0212576Y0282887D01*
X0212523Y0282738D01*
X0212467Y0282590D01*
X0212407Y0282444D01*
X0212343Y0282299D01*
X0212275Y0282156D01*
X0212204Y0282014D01*
X0212130Y0281874D01*
X0212052Y0281737D01*
X0211970Y0281601D01*
X0211886Y0281467D01*
X0211797Y0281336D01*
X0211706Y0281207D01*
X0211611Y0281080D01*
X0211514Y0280955D01*
X0211413Y0280833D01*
X0211309Y0280714D01*
X0211202Y0280597D01*
X0211092Y0280483D01*
X0210979Y0280372D01*
X0210864Y0280263D01*
X0210746Y0280158D01*
X0210625Y0280056D01*
X0210502Y0279956D01*
X0210376Y0279860D01*
X0210248Y0279767D01*
X0210118Y0279677D01*
X0209985Y0279591D01*
X0209850Y0279507D01*
X0209714Y0279428D01*
X0209575Y0279351D01*
X0209434Y0279279D01*
X0209292Y0279209D01*
X0209148Y0279144D01*
X0209002Y0279082D01*
X0208855Y0279024D01*
X0208706Y0278969D01*
X0208556Y0278918D01*
X0208405Y0278871D01*
X0208253Y0278828D01*
X0208100Y0278789D01*
X0207945Y0278753D01*
X0207790Y0278722D01*
X0207634Y0278694D01*
X0207478Y0278670D01*
X0207321Y0278650D01*
X0207163Y0278634D01*
X0207006Y0278622D01*
X0206847Y0278614D01*
X0206689Y0278610D01*
X0206531Y0278610D01*
X0206373Y0278614D01*
X0206214Y0278622D01*
X0206057Y0278634D01*
X0205899Y0278650D01*
X0205742Y0278670D01*
X0205586Y0278694D01*
X0205430Y0278722D01*
X0205275Y0278753D01*
X0205120Y0278789D01*
X0204967Y0278828D01*
X0204815Y0278871D01*
X0204664Y0278918D01*
X0204514Y0278969D01*
X0204365Y0279024D01*
X0204218Y0279082D01*
X0204072Y0279144D01*
X0203928Y0279209D01*
X0203786Y0279279D01*
X0203645Y0279351D01*
X0203506Y0279428D01*
X0203370Y0279507D01*
X0203235Y0279591D01*
X0203102Y0279677D01*
X0202972Y0279767D01*
X0202844Y0279860D01*
X0202718Y0279956D01*
X0202595Y0280056D01*
X0202474Y0280158D01*
X0202356Y0280263D01*
X0202241Y0280372D01*
X0202128Y0280483D01*
X0202018Y0280597D01*
X0201911Y0280714D01*
X0201807Y0280833D01*
X0201706Y0280955D01*
X0201609Y0281080D01*
X0201514Y0281207D01*
X0201423Y0281336D01*
X0201334Y0281467D01*
X0201250Y0281601D01*
X0201168Y0281737D01*
X0201090Y0281874D01*
X0201016Y0282014D01*
X0200945Y0282156D01*
X0200877Y0282299D01*
X0200813Y0282444D01*
X0200753Y0282590D01*
X0200697Y0282738D01*
X0200644Y0282887D01*
X0200595Y0283038D01*
X0200550Y0283190D01*
X0200509Y0283343D01*
X0200471Y0283496D01*
X0200438Y0283651D01*
X0200408Y0283807D01*
X0200382Y0283963D01*
X0200361Y0284120D01*
X0200343Y0284277D01*
X0200329Y0284435D01*
X0200319Y0284593D01*
X0200313Y0284751D01*
X0200311Y0284909D01*
D11*
X0159681Y0224949D03*
X0159642Y0217941D03*
X0151768Y0217941D03*
X0151807Y0224949D03*
X0132201Y0211720D03*
X0132201Y0204201D03*
X0124327Y0204201D03*
X0124327Y0211720D03*
X0112083Y0204201D03*
X0104209Y0204201D03*
D12*
X0110154Y0264437D03*
X0110154Y0272311D03*
X0117044Y0272311D03*
X0117044Y0264437D03*
X0051099Y0225854D03*
X0051099Y0217980D03*
X0124957Y0137429D03*
X0124957Y0129555D03*
X0144681Y0129594D03*
X0144681Y0137469D03*
D13*
X0142240Y0296789D02*
X0142240Y0300589D01*
X0114091Y0300589D02*
X0114091Y0296789D01*
D14*
X0114091Y0287106D02*
X0114091Y0283106D01*
X0142240Y0283106D02*
X0142240Y0287106D01*
D15*
X0136040Y0290303D03*
X0120292Y0290303D03*
D16*
X0191433Y0240185D03*
X0203835Y0240185D03*
X0186551Y0174673D03*
X0174150Y0174673D03*
X0147181Y0174673D03*
X0134780Y0174673D03*
X0107811Y0174673D03*
X0095410Y0174673D03*
X0068441Y0174673D03*
X0056040Y0174673D03*
X0056040Y0135303D03*
X0068441Y0135303D03*
X0068441Y0095933D03*
X0056040Y0095933D03*
X0056040Y0056563D03*
X0068441Y0056563D03*
X0095410Y0056563D03*
X0107811Y0056563D03*
X0134780Y0056563D03*
X0147181Y0056563D03*
X0174150Y0056563D03*
X0186551Y0056563D03*
X0186551Y0095933D03*
X0174150Y0095933D03*
X0174032Y0135303D03*
X0186433Y0135303D03*
X0117969Y0095657D03*
X0105567Y0095657D03*
D17*
X0118028Y0129201D03*
X0118028Y0137469D03*
X0137713Y0137469D03*
X0137713Y0129201D03*
X0145784Y0182193D03*
X0145784Y0190461D03*
X0139721Y0205618D03*
X0139721Y0213886D03*
X0058382Y0217587D03*
X0058382Y0225854D03*
X0068815Y0044949D03*
X0068815Y0036681D03*
X0108185Y0036681D03*
X0108185Y0044949D03*
X0147555Y0044949D03*
X0147555Y0036681D03*
X0186925Y0036681D03*
X0186925Y0044949D03*
D18*
X0087949Y0205106D03*
X0079681Y0205106D03*
X0054051Y0249280D03*
X0054051Y0256130D03*
X0045784Y0256130D03*
X0045784Y0249280D03*
X0072162Y0270736D03*
X0076492Y0278217D03*
X0080429Y0270736D03*
X0084760Y0278217D03*
X0084366Y0298335D03*
X0092634Y0298335D03*
X0177359Y0297941D03*
X0185626Y0297941D03*
D19*
X0174125Y0183573D03*
X0160355Y0183573D03*
X0160355Y0165773D03*
X0174125Y0165773D03*
X0174125Y0144203D03*
X0174125Y0126403D03*
X0174125Y0104833D03*
X0174125Y0087033D03*
X0174125Y0065463D03*
X0160355Y0065463D03*
X0160355Y0047663D03*
X0174125Y0047663D03*
X0199725Y0047663D03*
X0199725Y0065463D03*
X0199725Y0087033D03*
X0199725Y0104833D03*
X0199725Y0126403D03*
X0199725Y0144203D03*
X0199725Y0165773D03*
X0199725Y0183573D03*
X0134755Y0183573D03*
X0134755Y0165773D03*
X0120985Y0165773D03*
X0120985Y0183573D03*
X0095385Y0183573D03*
X0081615Y0183573D03*
X0081615Y0165773D03*
X0095385Y0165773D03*
X0081615Y0144203D03*
X0081615Y0126403D03*
X0081615Y0104833D03*
X0081615Y0087033D03*
X0081615Y0065463D03*
X0095385Y0065463D03*
X0095385Y0047663D03*
X0081615Y0047663D03*
X0056015Y0047663D03*
X0056015Y0065463D03*
X0056015Y0087033D03*
X0056015Y0104833D03*
X0056015Y0126403D03*
X0056015Y0144203D03*
X0056015Y0165773D03*
X0056015Y0183573D03*
X0120985Y0065463D03*
X0120985Y0047663D03*
X0134755Y0047663D03*
X0134755Y0065463D03*
D20*
X0119996Y0040815D03*
X0157398Y0040815D03*
X0204642Y0056563D03*
X0078658Y0040815D03*
X0045193Y0065500D03*
X0045193Y0104870D03*
X0045193Y0144201D03*
X0045193Y0183374D03*
D21*
X0145981Y0264043D03*
X0152280Y0264043D03*
X0152280Y0269555D03*
X0158973Y0263650D03*
X0152280Y0257744D03*
X0161729Y0234122D03*
X0176689Y0256957D03*
X0151492Y0297508D03*
D22*
X0214463Y0254439D03*
X0214463Y0236639D03*
D23*
X0204663Y0231739D03*
X0204663Y0259339D03*
D24*
X0206610Y0284909D03*
X0049130Y0284909D03*
X0049130Y0029004D03*
X0206610Y0029004D03*
D25*
X0137713Y0086091D03*
X0118028Y0086091D03*
X0118028Y0143177D03*
X0127870Y0143177D03*
X0137713Y0143177D03*
D26*
X0151886Y0118965D02*
X0151886Y0108335D01*
X0103855Y0108335D02*
X0103855Y0118965D01*
D27*
X0116847Y0222705D03*
X0119996Y0222705D03*
X0123146Y0222705D03*
X0126296Y0222705D03*
X0129445Y0222705D03*
X0132595Y0222705D03*
X0135744Y0222705D03*
X0138894Y0222705D03*
X0138894Y0256563D03*
X0135744Y0256563D03*
X0132595Y0256563D03*
X0129445Y0256563D03*
X0126296Y0256563D03*
X0123146Y0256563D03*
X0119996Y0256563D03*
X0116847Y0256563D03*
D28*
X0110941Y0250657D03*
X0110941Y0247508D03*
X0110941Y0244358D03*
X0110941Y0241209D03*
X0110941Y0238059D03*
X0110941Y0234909D03*
X0110941Y0231760D03*
X0110941Y0228610D03*
X0144799Y0228610D03*
X0144799Y0231760D03*
X0144799Y0234909D03*
X0144799Y0238059D03*
X0144799Y0241209D03*
X0144799Y0244358D03*
X0144799Y0247508D03*
X0144799Y0250657D03*
D29*
X0104248Y0196720D03*
D30*
X0110154Y0196720D03*
X0116059Y0196720D03*
X0121965Y0196720D03*
X0127870Y0196720D03*
X0133776Y0196720D03*
X0139681Y0196720D03*
X0145587Y0196720D03*
X0151492Y0196720D03*
D31*
X0157299Y0204988D02*
X0161433Y0204988D01*
X0098441Y0204988D02*
X0094307Y0204988D01*
D32*
X0084366Y0251051D03*
X0076886Y0251051D03*
X0080626Y0260500D03*
X0089091Y0262862D03*
X0096571Y0262862D03*
X0092831Y0272311D03*
X0096571Y0282941D03*
X0104051Y0282941D03*
X0100311Y0292390D03*
D33*
X0162122Y0194358D03*
X0171571Y0190618D03*
X0171571Y0198098D03*
M02*
